<svg width="180" height="180" viewBox="0 0 180 180" fill="none" xmlns="http://www.w3.org/2000/svg">
  <rect x="28" y="48" width="124" height="88" rx="20" fill="#111827"/>
  <path d="M40 45C40 33.95 48.95 25 60 25H132C143.05 25 152 33.95 152 45V121C152 132.05 143.05 141 132 141H60C48.95 141 40 132.05 40 121V45Z" fill="#F3F4F6"/>
  <path d="M40 70H152C158.08 70 163 74.92 163 81V125C163 131.08 158.08 136 152 136H51C44.92 136 40 131.08 40 125V70Z" fill="#111827"/>
  <rect x="112" y="89" width="40" height="29" rx="10" fill="#F9FAFB"/>
  <circle cx="128" cy="103" r="7" fill="#16A34A"/>
  <path d="M59 99H98" stroke="#16A34A" stroke-width="9" stroke-linecap="round"/>
  <path d="M59 116H112" stroke="#DC2626" stroke-width="9" stroke-linecap="round"/>
</svg>
